<svg width="306" height="306" viewBox="0 0 306 306" fill="none" xmlns="http://www.w3.org/2000/svg">
<circle cx="153" cy="153" r="153" fill="url(#paint0_linear_2_6)"/>
<path d="M87.88 87.72C108.04 87.72 124.18 92.22 136.3 101.22C148.42 110.1 154.48 126.3 154.48 149.82C154.48 172.98 148.66 189.3 137.02 198.78C125.38 208.26 109.72 213 90.04 213H47.74V87.72H87.88ZM84.82 113.82V186.9H92.2C97.96 186.9 102.58 185.76 106.06 183.48C109.54 181.2 112.12 177.42 113.8 172.14C115.48 166.74 116.32 159.3 116.32 149.82C116.32 140.46 115.42 133.2 113.62 128.04C111.94 122.76 109.36 119.1 105.88 117.06C102.4 114.9 97.9 113.82 92.38 113.82H84.82ZM229.807 213L224.947 188.7H195.247L190.567 213H151.867L188.407 87.72H232.687L269.047 213H229.807ZM200.467 162.78H219.727L210.007 113.64L200.467 162.78Z" fill="white"/>
<defs>
<linearGradient id="paint0_linear_2_6" x1="153" y1="0" x2="153" y2="306" gradientUnits="userSpaceOnUse">
<stop stop-color="#B6F829"/>
<stop offset="1" stop-color="#67DD0A"/>
</linearGradient>
</defs>
</svg>
